# xmcd
#
# Track frame offsets: 
#        150
#        3755
#        22125
#        38355
#        57330
#        76730
#        94842
#        112854
#        134615
#        153937
#        173547
#        194307
#
# Disc length: 2635 seconds
#
# Revision: 1
# Processed by: cddbd v1.5.1PL0 Copyright (c) Steve Scherf et al.
# Submitted via: ExactAudioCopy v0.95b2
#
DISCID=830a490c
DTITLE=Guang Liang - Tong Hua
DYEAR=2005
DGENRE=Pop
TTITLE0=INTRO
TTITLE1=Tong Hua
TTITLE2=Tian Tang
TTITLE3=Shao Nian
TTITLE4=Shou Ji Liu Yan
TTITLE5=Xiang Zuo Zhou Xiang You Zhou
TTITLE6=Yi Dian Guang Yi Dian Liang
TTITLE7=Qi Xian
TTITLE8=Hai Bian
TTITLE9=Mei Mei
TTITLE10=Ji De Wo Ai Ni
TTITLE11=THE END
EXTD=
EXTT0=
EXTT1=
EXTT2=
EXTT3=
EXTT4=
EXTT5=
EXTT6=
EXTT7=
EXTT8=
EXTT9=
EXTT10=
EXTT11=
PLAYORDER=
